<svg xmlns="http://www.w3.org/2000/svg" xmlns:xlink="http://www.w3.org/1999/xlink"><symbol id="icon-adjust"><path d="M12 9a1.001 1.001 0 11-1 1c0-.551.448-1 1-1zm0-2a3 3 0 100 6 3 3 0 000-6zm-9 4a3 3 0 100 6 3 3 0 000-6zm18 0a3 3 0 100 6 3 3 0 000-6zm-9-6c.343 0 .677.035 1 .101V2a1 1 0 10-2 0v3.101A4.988 4.988 0 0112 5zm9 4c.343 0 .677.035 1 .101V2a1 1 0 10-2 0v7.101A4.988 4.988 0 0121 9zm0 10c-.343 0-.677-.035-1-.101V22a1 1 0 102 0v-3.101A4.988 4.988 0 0121 19zM3 9c.343 0 .677.035 1 .101V2a1 1 0 10-2 0v7.101A4.988 4.988 0 013 9zm9 6c-.343 0-.677-.035-1-.101V22a1 1 0 102 0v-7.101A4.988 4.988 0 0112 15zm-9 4c-.343 0-.677-.035-1-.101V22a1 1 0 102 0v-3.101A4.988 4.988 0 013 19z"/></symbol><symbol id="icon-generate"><path d="M13.5 2C7.871 2 3.288 6.436 3.025 12H0l4.537 5.917L9 12H6.025c.26-3.902 3.508-7 7.475-7 4.136 0 7.5 3.364 7.5 7.5S17.636 20 13.5 20a7.483 7.483 0 01-5.876-2.854l-1.847 2.449A10.46 10.46 0 0013.5 23C19.298 23 24 18.298 24 12.5S19.298 2 13.5 2z"/></symbol><symbol id="icon-lock"><path d="M17 9.761V5A5 5 0 107 5v4.761A7.98 7.98 0 004 16a8 8 0 0016 0 7.98 7.98 0 00-3-6.239zM12 18a2 2 0 11.001-4.001A2 2 0 0112 18zm3-9.413a7.96 7.96 0 00-6 0V5c0-1.654 1.346-3 3-3s3 1.346 3 3v3.587z"/></symbol><symbol id="icon-palette"><path d="M4 21.832c4.587.38 2.944-4.493 7.188-4.538l1.838 1.534c.458 5.538-6.315 6.773-9.026 3.004zm14.065-7.115c1.427-2.239 5.847-9.749 5.847-9.749.352-.623-.43-1.273-.976-.813 0 0-6.572 5.714-8.511 7.525-1.532 1.432-1.539 2.086-2.035 4.447l1.68 1.4c2.227-.915 2.868-1.039 3.995-2.81zM6.066 18.593c.666-1.134 1.748-2.977 4.447-3.262.434-2.087.607-3.3 2.547-5.112 1.373-1.282 4.938-4.409 7.021-6.229-1-2.208-4.141-4.023-8.178-3.99C5.279.055-.053 5.465 0 12.092a11.956 11.956 0 002.82 7.635c1.618.429 2.376.348 3.246-1.134zm6.952-15.835a2.006 2.006 0 012.016 1.983 2.005 2.005 0 01-1.986 2.016 1.997 1.997 0 01-2.014-1.984 1.994 1.994 0 011.984-2.015zM7.021 4.759a1.993 1.993 0 012.012 1.983 1.998 1.998 0 11-3.996.028 1.994 1.994 0 011.984-2.011zm-2.003 5.998a2 2 0 11.03 4 1.995 1.995 0 01-2.011-1.985 1.998 1.998 0 011.981-2.015zm10.031 8.532c.021 2.239-.882 3.718-1.682 4.587l-.046.044c5.255-.591 9.062-4.304 6.266-7.889-1.373 2.047-2.534 2.442-4.538 3.258z"/></symbol><symbol id="icon-save"><path d="M19.479 10.092C19.267 6.141 16.006 3 12 3c-4.005 0-7.267 3.141-7.479 7.092A5.499 5.499 0 005.5 21h13a5.499 5.499 0 00.979-10.908zM12 17l-4-4h3V9h2v4h3l-4 4z"/></symbol><symbol id="icon-unlock"><path d="M12 8a7.96 7.96 0 00-3 .587V5c0-1.654 1.346-3 3-3s3 1.346 3 3v1h2V5A5 5 0 107 5v4.761A7.98 7.98 0 004 16a8 8 0 108-8zm0 10a2 2 0 11.001-4.001A2 2 0 0112 18z"/></symbol></svg>